# xmcd CD database file
#
# Track frame offsets:
#	150
#	15010
#	28981
#	45470
#	58000
#	70685
#	80890
#	95700
#	106635
#	121412
#	134400
#	146568
#	159632
#	175291
#	188568
#	203509
#	215059
#	226808
#	239758
#	252420
#
# Disc length: 3535 seconds
#
# Revision: 0
# Processed by: cddbd v1.5.2PL0 Copyright (c) Steve Scherf et al.
# Submitted via: CDex 1.70beta2
#
DISCID=190dcd14
DTITLE=Elmore James - 20 Légendes du Blues CD 16
DYEAR=2008
DGENRE=Blues
TTITLE0=Sunny Land
TTITLE1=Please Find My Baby
TTITLE2=My Best Friend
TTITLE3=Happy Home
TTITLE4=Early In The Morning
TTITLE5=Mean And Evil
TTITLE6=1839 Blues
TTITLE7=No Love In My Heart
TTITLE8=I Believe
TTITLE9=Sinful Woman
TTITLE10=Country Boogie
TTITLE11=Baby What's Wrong
TTITLE12=I Held My Babe Last Night
TTITLE13=Where Can My Baby Be
TTITLE14=Whose Muddy Shoes
TTITLE15=Sytrange Kinda Feeling
TTITLE16=Rock My Baby Right
TTITLE17=Hand In Hand
TTITLE18=Dark And Dreary
TTITLE19=Make A Little Love
EXTD=YEAR: 2008
EXTT0=
EXTT1=
EXTT2=
EXTT3=
EXTT4=
EXTT5=
EXTT6=
EXTT7=
EXTT8=
EXTT9=
EXTT10=
EXTT11=
EXTT12=
EXTT13=
EXTT14=
EXTT15=
EXTT16=
EXTT17=
EXTT18=
EXTT19=
PLAYORDER=
